<svg width="1280" height="720" viewBox="0 0 1280 720" fill="none" xmlns="http://www.w3.org/2000/svg">
  <defs>
    <linearGradient id="bg" x1="80" y1="60" x2="1180" y2="680" gradientUnits="userSpaceOnUse">
      <stop stop-color="#0F172A"/>
      <stop offset="0.38" stop-color="#1D4ED8"/>
      <stop offset="1" stop-color="#EA580C"/>
    </linearGradient>
    <linearGradient id="cardA" x1="0" y1="0" x2="1" y2="1">
      <stop stop-color="#FFF7ED"/>
      <stop offset="1" stop-color="#FED7AA"/>
    </linearGradient>
    <linearGradient id="cardB" x1="0" y1="0" x2="1" y2="1">
      <stop stop-color="#ECFEFF"/>
      <stop offset="1" stop-color="#BAE6FD"/>
    </linearGradient>
    <linearGradient id="cardC" x1="0" y1="0" x2="1" y2="1">
      <stop stop-color="#F5F3FF"/>
      <stop offset="1" stop-color="#DDD6FE"/>
    </linearGradient>
    <filter id="shadow" x="-30%" y="-30%" width="160%" height="160%">
      <feDropShadow dx="0" dy="18" stdDeviation="18" flood-color="#0F172A" flood-opacity="0.28"/>
    </filter>
  </defs>

  <rect width="1280" height="720" rx="48" fill="url(#bg)"/>
  <circle cx="170" cy="118" r="110" fill="#F97316" fill-opacity="0.22"/>
  <circle cx="1120" cy="150" r="130" fill="#0EA5E9" fill-opacity="0.20"/>
  <circle cx="1080" cy="600" r="160" fill="#22C55E" fill-opacity="0.16"/>

  <g filter="url(#shadow)">
    <rect x="88" y="86" width="520" height="268" rx="26" fill="url(#cardA)"/>
    <rect x="646" y="118" width="546" height="238" rx="26" fill="url(#cardB)"/>
    <rect x="170" y="390" width="430" height="238" rx="26" fill="url(#cardC)"/>
    <rect x="640" y="384" width="466" height="250" rx="26" fill="#FEFCE8"/>
  </g>

  <g fill="#0F172A" font-family="Arial, sans-serif">
    <text x="126" y="148" font-size="32" font-weight="700">Bloggent Mission Control</text>
    <text x="126" y="186" font-size="21" font-weight="600">게시 → 측정 → 분석 → 수정 → 재배포</text>

    <text x="126" y="244" font-size="18" font-weight="700">Blogger Room</text>
    <text x="126" y="270" font-size="16">SEO / CTR 리라이트 큐 자동 생성</text>
    <text x="126" y="296" font-size="16">Search Console + GA4 점수화</text>

    <text x="682" y="168" font-size="28" font-weight="700">YouTube Studio</text>
    <text x="682" y="204" font-size="16">영상 업로드 + 메타데이터 + 썸네일</text>
    <text x="682" y="230" font-size="16">기본 private 워크플로우</text>
    <text x="682" y="256" font-size="16">정책/감사 트랙 분리</text>

    <text x="682" y="430" font-size="28" font-weight="700">Instagram Desk</text>
    <text x="682" y="466" font-size="16">이미지 / 릴스 분리 큐</text>
    <text x="682" y="492" font-size="16">Capability-gated Publish Adapter</text>

    <text x="214" y="436" font-size="28" font-weight="700">Agent Runtime</text>
    <text x="214" y="472" font-size="16">Claude CLI · Codex CLI · Gemini CLI</text>
    <text x="214" y="498" font-size="16">OAuth 세션 재사용, 실행 로그 추적</text>
  </g>

  <g>
    <rect x="998" y="562" width="190" height="52" rx="12" fill="#111827"/>
    <text x="1026" y="594" fill="#FFFFFF" font-size="18" font-family="Arial, sans-serif" font-weight="700">/dashboard</text>
  </g>
</svg>
